<svg width="544" height="78" viewBox="0 0 544 78" fill="none" xmlns="http://www.w3.org/2000/svg">
<path d="M540.481 31.6612H523.128L522.243 36.8331H537.895L535.718 49.0823H520.066L519.113 54.3903H536.806L534.629 66.9117H503.325L511.695 19.2759H542.659L540.481 31.6612Z" fill="white"/>
<path d="M457.072 66.9117L465.443 19.2759H476.331L487.287 42.1411L491.302 19.2759H504.912L496.542 66.9117H485.654L474.698 44.0465L470.683 66.9117H457.072Z" fill="white"/>
<path d="M445.04 19.2759H458.65L450.28 66.9117H436.67L445.04 19.2759Z" fill="white"/>
<path d="M424.629 19.2759H438.24L429.869 66.9117H416.259L419.321 49.3545H407.753L404.69 66.9117H391.08L399.45 19.2759H413.061L410.066 36.1526H421.635L424.629 19.2759Z" fill="white"/>
<path d="M367.455 68.0005C360.06 68.0005 354.321 65.5733 350.238 60.719C346.2 55.8647 344.771 49.7628 345.951 42.4132C347.085 35.3359 350.283 29.5289 355.546 24.9921C360.854 20.4554 367.001 18.187 373.988 18.187C383.334 18.187 390.025 22.0886 394.063 29.8918L381.61 36.4928C379.75 33.181 376.801 31.525 372.763 31.525C369.497 31.525 366.616 32.6139 364.12 34.7915C361.625 36.9691 360.083 39.7366 359.493 43.0938C358.949 46.3148 359.493 49.0596 361.126 51.328C362.759 53.551 365.209 54.6625 368.476 54.6625C372.241 54.6625 375.485 52.8931 378.207 49.3545L389.504 56.4998C387.054 60.1292 383.901 62.9647 380.044 65.0062C376.234 67.0024 372.037 68.0005 367.455 68.0005Z" fill="white"/>
<path d="M328.47 66.9112L327.926 60.7866H314.179L311.457 66.9112H296.418L319.964 19.2754H335.888L342.693 66.9112H328.47ZM319.011 49.8984H326.905L325.544 35.2674L319.011 49.8984Z" fill="white"/>
<path d="M302.061 19.2754L293.691 66.9112H280.081L284.096 43.978L270.758 61.5352H269.533L261.775 43.0933L257.624 66.9112H244.014L252.384 19.2754H265.994L273.14 38.8061L287.771 19.2754H302.061Z" fill="white"/>
<path d="M225.237 32.4778H209.245L208.156 38.6705H223.808L221.494 51.8724H205.842L203.188 66.9117H189.578L197.948 19.2759H227.551L225.237 32.4778Z" fill="#CFCFCF"/>
<path d="M172.621 66.9117L172.077 60.7871H158.331L155.609 66.9117H140.569L164.115 19.2759H180.039L186.844 66.9117H172.621ZM163.162 49.8989H171.056L169.695 35.2679L163.162 49.8989Z" fill="#CFCFCF"/>
<path d="M146.212 19.2759L137.841 66.9117H124.231L128.246 43.9785L114.908 61.5357H113.683L105.925 43.0938L101.774 66.9117H88.1641L96.5344 19.2759H110.145L117.29 38.8066L131.921 19.2759H146.212Z" fill="#CFCFCF"/>
<path d="M71.6616 40.6706L35.7662 76.5659L17.8186 58.6183L17.8831 58.5537L0 40.6706L19.2888 21.3818L35.8308 37.9238L52.3728 21.3818L71.6616 40.6706Z" fill="url(#paint0_linear_39_335)"/>
<g opacity="0.7">
<path d="M47.189 14.9547L35.8123 26.3313L30.124 20.643L30.1444 20.6225L24.4766 14.9547L30.5899 8.84131L35.8328 14.0841L41.0756 8.84131L47.189 14.9547Z" fill="url(#paint1_linear_39_335)"/>
</g>
<g opacity="0.4">
<path d="M40.7125 2.62792L35.822 7.51833L33.3768 5.07313L33.3856 5.06432L30.9492 2.62792L33.5771 0L35.8308 2.25369L38.0845 0L40.7125 2.62792Z" fill="url(#paint2_linear_39_335)"/>
</g>
<defs>
<linearGradient id="paint0_linear_39_335" x1="35.8308" y1="21.3818" x2="35.8308" y2="76.5659" gradientUnits="userSpaceOnUse">
<stop stop-color="#FF5B45"/>
<stop offset="1" stop-color="#CF40C5"/>
</linearGradient>
<linearGradient id="paint1_linear_39_335" x1="35.8328" y1="8.84131" x2="35.8328" y2="26.3313" gradientUnits="userSpaceOnUse">
<stop stop-color="#FF5B45"/>
<stop offset="1" stop-color="#CF40C5"/>
</linearGradient>
<linearGradient id="paint2_linear_39_335" x1="35.8308" y1="0" x2="35.8308" y2="7.51833" gradientUnits="userSpaceOnUse">
<stop stop-color="#FF5B45"/>
<stop offset="1" stop-color="#CF40C5"/>
</linearGradient>
</defs>
</svg>
